<svg id="idsvg_bitcoin" width="64" height="64" viewBox="0 0 64 64" fill="none" xmlns="http://www.w3.org/2000/svg">
<rect width="64" height="64" rx="32" fill="#FEFDE6"/>
<path fill-rule="evenodd" clip-rule="evenodd" d="M32 20.5332C25.6672 20.5332 20.5334 25.667 20.5334 31.9999C20.5334 38.3328 25.6672 43.4666 32 43.4666C38.3329 43.4666 43.4667 38.3328 43.4667 31.9999C43.4667 25.667 38.3329 20.5332 32 20.5332ZM17.8667 31.9999C17.8667 24.1943 24.1944 17.8666 32 17.8666C39.8057 17.8666 46.1334 24.1943 46.1334 31.9999C46.1334 39.8055 39.8057 46.1332 32 46.1332C24.1944 46.1332 17.8667 39.8055 17.8667 31.9999ZM29.8924 22.6666C30.6288 22.6666 31.2257 23.2635 31.2257 23.9999V25.3589H32.1489V23.9999C32.1489 23.2635 32.7458 22.6666 33.4822 22.6666C34.2186 22.6666 34.8155 23.2635 34.8155 23.9999V25.3826C35.7229 25.4814 36.5748 25.8865 37.2263 26.538C37.9812 27.293 38.4054 28.317 38.4054 29.3846C38.4054 30.3813 38.0358 31.3398 37.3726 32.077C38.0358 32.8142 38.4054 33.7727 38.4054 34.7694C38.4054 35.837 37.9812 36.861 37.2263 37.616C36.5748 38.2675 35.7229 38.6726 34.8155 38.7714V40.1541C34.8155 40.8905 34.2186 41.4874 33.4822 41.4874C32.7458 41.4874 32.1489 40.8905 32.1489 40.1541V38.7951H31.2257V40.1541C31.2257 40.8905 30.6288 41.4874 29.8924 41.4874C29.156 41.4874 28.5591 40.8905 28.5591 40.1541V38.7951H27.2C26.4637 38.7951 25.8667 38.1981 25.8667 37.4617C25.8667 36.7253 26.4637 36.1284 27.2 36.1284H27.6616V28.0256H27.2C26.4637 28.0256 25.8667 27.4287 25.8667 26.6923C25.8667 25.9559 26.4637 25.3589 27.2 25.3589H28.5591V23.9999C28.5591 23.2635 29.156 22.6666 29.8924 22.6666ZM30.3283 28.0256V30.7437H34.3797C34.7401 30.7437 35.0858 30.6005 35.3406 30.3456C35.5955 30.0907 35.7387 29.7451 35.7387 29.3846C35.7387 29.0242 35.5955 28.6785 35.3406 28.4237C35.0858 28.1688 34.7401 28.0256 34.3797 28.0256H30.3283ZM34.3797 33.4103H30.3283V36.1284H34.3797C34.7401 36.1284 35.0858 35.9852 35.3406 35.7303C35.5955 35.4755 35.7387 35.1298 35.7387 34.7694C35.7387 34.4089 35.5955 34.0633 35.3406 33.8084C35.0858 33.5535 34.7401 33.4103 34.3797 33.4103Z" fill="#FFCD29"/>
</svg>
