<svg width="24" height="24" viewBox="0 0 24 24" fill="none" xmlns="http://www.w3.org/2000/svg">
<path fill-rule="evenodd" clip-rule="evenodd" d="M3.61858 18.7717C3.85794 19.2413 4.22403 19.6418 4.68867 19.9456C5.18147 20.2771 5.71652 20.5257 6.26564 20.6914C6.82884 20.8571 7.42021 20.94 8.01157 20.94C8.78598 20.94 9.56038 20.7881 10.2644 20.4981C10.8558 20.2633 11.4049 19.9318 11.8977 19.5175C12.3905 19.9318 12.9396 20.2633 13.5169 20.4981C14.235 20.7881 15.0094 20.94 15.7838 20.94C16.3751 20.94 16.9524 20.8571 17.5156 20.6914C18.0788 20.5257 18.6139 20.2771 19.1067 19.9456C19.5713 19.6418 19.9374 19.2413 20.1768 18.7717C20.4302 18.316 20.571 17.7912 20.571 17.2526C20.571 16.6311 20.4021 16.051 20.0782 15.5539C19.7684 15.0429 19.3038 14.6285 18.7547 14.3523C18.5435 14.2418 18.29 14.3247 18.1915 14.5319C18.107 14.6838 18.1352 14.8633 18.2478 14.9876C18.3041 15.0567 18.3464 15.1395 18.3745 15.2224C18.4168 15.3053 18.4308 15.4019 18.4308 15.4986C18.4308 15.7334 18.3323 15.9405 18.1774 16.0925C18.0225 16.2444 17.8113 16.3411 17.572 16.3411C17.4734 16.3411 17.3748 16.3134 17.2763 16.2858C17.1918 16.2582 17.1073 16.203 17.0228 16.1339C16.5582 15.761 16.0654 15.4434 15.5303 15.181C15.2206 15.0429 14.9108 14.9186 14.6011 14.8219C14.8967 14.4904 15.1502 14.1037 15.3191 13.6756C15.7415 13.648 16.1358 13.4684 16.4315 13.1784C16.7412 12.8608 16.9383 12.4327 16.9383 11.9493C16.9383 11.4797 16.7412 11.0516 16.4315 10.7339C16.1076 10.4163 15.6711 10.223 15.1783 10.223L14.8686 8.80046C15.4459 9.21478 16.1499 9.46337 16.9102 9.46337H19.515C20.3598 9.46337 21.1342 9.17335 21.7256 8.66235C22.3169 8.16517 22.7393 7.46083 22.8801 6.65981L23.1899 4.65727C23.204 4.65727 23.204 4.64346 23.204 4.62965V4.61584C23.3307 4.57441 23.4574 4.50536 23.556 4.40868C23.6968 4.25677 23.7954 4.04961 23.7954 3.82864C23.7954 3.62148 23.7109 3.42813 23.5842 3.27621L23.556 3.24859C23.4011 3.09667 23.1899 3 22.9646 3H22.9505H21.7537H14.5729H14.5588C14.1505 3 13.7985 3.16573 13.531 3.42813C13.4887 3.46956 13.4324 3.5248 13.3902 3.58005C13.2353 3.49718 13.0663 3.42813 12.8974 3.37289C12.5735 3.27621 12.2356 3.22097 11.8977 3.22097C11.5598 3.22097 11.2218 3.27621 10.898 3.37289C10.729 3.42813 10.5601 3.49718 10.4052 3.58005C10.3629 3.5248 10.3066 3.46956 10.2644 3.42813C9.99686 3.16573 9.64486 3 9.23654 3H9.22246H2.04161H0.830725C0.605444 3 0.394243 3.09667 0.239362 3.24859C0.23066 3.24859 0.227336 3.25387 0.222742 3.26116C0.219903 3.26566 0.216579 3.27094 0.211201 3.27621C0.0844806 3.42813 0 3.62148 0 3.82864C0 4.04961 0.0844805 4.25677 0.239362 4.40868C0.337922 4.50536 0.450563 4.57441 0.591364 4.61584V4.62965V4.65727L0.915206 6.65981C1.05601 7.46083 1.46433 8.16517 2.06977 8.66235C2.66114 9.17335 3.43554 9.46337 4.28035 9.46337H6.88516C7.64549 9.46337 8.34949 9.21478 8.92678 8.80046L8.61702 10.223C8.13829 10.223 7.71589 10.4025 7.39205 10.7063L7.36389 10.7339C7.04005 11.0516 6.84292 11.4797 6.84292 11.9493C6.84292 12.4327 7.04005 12.8608 7.36389 13.1784C7.65957 13.4684 8.03973 13.648 8.47621 13.6756C8.64518 14.1037 8.88454 14.4904 9.1943 14.8219C8.88454 14.9186 8.57477 15.0429 8.26501 15.181C7.72997 15.4434 7.22309 15.761 6.77252 16.1339C6.68804 16.203 6.60356 16.2582 6.51908 16.2858C6.42052 16.3134 6.32196 16.3411 6.2234 16.3411C5.98404 16.3411 5.77284 16.2444 5.61796 16.0925C5.46308 15.9405 5.36451 15.7334 5.36451 15.4986C5.36451 15.4019 5.37859 15.3053 5.42084 15.2224C5.449 15.1395 5.49124 15.0567 5.54756 14.9876C5.6602 14.8633 5.68836 14.6838 5.60388 14.5319C5.50532 14.3247 5.25187 14.2418 5.04067 14.3523C4.47747 14.6285 4.02691 15.0429 3.71714 15.5539C3.3933 16.051 3.22434 16.6311 3.22434 17.2526C3.22434 17.7912 3.36514 18.316 3.61858 18.7717ZM12.8269 4.87798C13.0804 5.08514 13.2634 5.34754 13.3338 5.679L13.3761 5.87235L13.3901 5.88616L13.5873 6.83909V6.8529L14.4321 10.7613C14.4743 10.9823 14.6996 11.1342 14.9249 11.0789H14.9671C14.9829 11.0712 14.9987 11.0678 15.017 11.0639C15.0313 11.0608 15.0471 11.0574 15.0657 11.0513H15.1783C15.4318 11.0513 15.6711 11.148 15.8401 11.3137C15.995 11.4795 16.1076 11.7004 16.1076 11.949C16.1076 12.2114 15.995 12.4324 15.8401 12.5981C15.7556 12.681 15.643 12.75 15.5303 12.7915C15.5444 12.6672 15.5585 12.5291 15.5585 12.391C15.5585 12.17 15.3754 11.9766 15.1361 11.9766C14.9108 11.9766 14.7137 12.17 14.7137 12.391C14.7137 12.6534 14.6855 12.9019 14.6151 13.1367C14.6151 13.1426 14.6151 13.1459 14.614 13.1489C14.6126 13.153 14.6091 13.1564 14.601 13.1644C14.4743 13.6201 14.2209 14.0206 13.897 14.3521C13.3901 14.8492 12.6861 15.1531 11.9117 15.1531H11.8977H11.8836C11.1092 15.1531 10.4052 14.8492 9.89828 14.3521C9.57444 14.0206 9.32099 13.6201 9.19427 13.1644C9.18615 13.1564 9.18271 13.153 9.18126 13.1489C9.18019 13.1459 9.18019 13.1426 9.18019 13.1367C9.10979 12.9019 9.08163 12.6534 9.08163 12.391C9.08163 12.17 8.88451 11.9766 8.65923 11.9766C8.41987 11.9766 8.23683 12.17 8.23683 12.391C8.23683 12.5291 8.25091 12.6672 8.26499 12.7915C8.15235 12.75 8.03971 12.681 7.95522 12.5981C7.78626 12.4324 7.6877 12.2114 7.6877 11.949C7.6877 11.7004 7.78626 11.4795 7.95522 11.3137C7.96227 11.3137 7.96579 11.3103 7.96931 11.3068C7.97283 11.3034 7.97635 11.2999 7.98339 11.2999C8.13827 11.148 8.36355 11.0513 8.61699 11.0513H8.72963C8.74371 11.0582 8.76131 11.0617 8.77891 11.0651C8.79651 11.0686 8.81411 11.072 8.82819 11.0789H8.87043C9.09571 11.1342 9.32099 10.9823 9.36323 10.7613L10.194 6.8529H10.208V6.83909L10.4052 5.88616V5.87235L10.4615 5.679C10.5319 5.34754 10.7149 5.08514 10.9684 4.87798C11.2218 4.68463 11.5456 4.56034 11.8977 4.56034C12.2497 4.56034 12.5735 4.68463 12.8269 4.87798ZM14.404 6.67446H14.4181C14.5448 7.25451 14.8686 7.73788 15.3051 8.09695C15.7416 8.44222 16.3048 8.64938 16.9103 8.64938H19.5151C20.1487 8.64938 20.726 8.4146 21.1765 8.04171C21.6271 7.66882 21.9509 7.13021 22.0495 6.52254L22.3733 4.53381V4.52V4.47857V4.43714C22.3733 4.27141 22.3029 4.1195 22.1903 4.00901C22.0777 3.89853 21.9228 3.82947 21.7538 3.82947H14.573C14.3899 3.82947 14.235 3.89853 14.1224 4.00901C14.0098 4.1195 13.9394 4.27141 13.9394 4.43714C13.9394 4.46476 13.9394 4.49238 13.9534 4.50619V4.54762V4.56144L14.2069 5.70772V5.72153L14.404 6.67446ZM9.58855 5.72153L9.37735 6.67446C9.25063 7.25451 8.92678 7.73788 8.4903 8.09695C8.03974 8.44222 7.49061 8.64938 6.88517 8.64938H4.28035C3.64675 8.64938 3.05539 8.4146 2.6189 8.04171C2.16834 7.66882 1.8445 7.13021 1.74594 6.52254L1.42209 4.53381V4.52V4.47857V4.43714C1.42209 4.27141 1.4925 4.1195 1.60514 4.00901C1.71778 3.89853 1.87266 3.82947 2.04162 3.82947H9.22247C9.40551 3.82947 9.56039 3.89853 9.67303 4.00901C9.78567 4.1195 9.85607 4.27141 9.85607 4.43714C9.85607 4.45332 9.85124 4.4695 9.84724 4.4829C9.84441 4.49238 9.84199 4.50047 9.84199 4.50619V4.54762V4.56144L9.58855 5.70772V5.72153Z" fill="white"/>
</svg>
